REM DIRINDEX 1\2,1\3,1\4
REM DIRNAME cjc151,folder01,folder02,folder03
TITLE ""
FILE "075 075_TOEFL_3900.mp3" MP3
  TRACK 01 AUDIO
    TITLE "2:cjc151_3250"
    INDEX 01 00:00:00
  TRACK 02 AUDIO
    TITLE "0:"
    INDEX 01 00:01:17
  TRACK 03 AUDIO
    TITLE "3:cjc151_3251"
    INDEX 01 00:02:69
  TRACK 04 AUDIO
    TITLE "0:"
    INDEX 01 00:06:51
  TRACK 05 AUDIO
    TITLE "2:cjc151_3252"
    INDEX 01 00:08:30
  TRACK 06 AUDIO
    TITLE "0:"
    INDEX 01 00:09:30
  TRACK 07 AUDIO
    TITLE "3:cjc151_3253"
    INDEX 01 00:11:09
  TRACK 08 AUDIO
    TITLE "0:"
    INDEX 01 00:15:21
  TRACK 09 AUDIO
    TITLE "2:cjc151_3254"
    INDEX 01 00:17:00
  TRACK 10 AUDIO
    TITLE "0:"
    INDEX 01 00:18:03
  TRACK 11 AUDIO
    TITLE "3:cjc151_3255"
    INDEX 01 00:19:56
  TRACK 12 AUDIO
    TITLE "0:"
    INDEX 01 00:23:71
  TRACK 13 AUDIO
    TITLE "2:cjc151_3256"
    INDEX 01 00:25:50
  TRACK 14 AUDIO
    TITLE "0:"
    INDEX 01 00:26:66
  TRACK 15 AUDIO
    TITLE "3:cjc151_3257"
    INDEX 01 00:28:43
  TRACK 16 AUDIO
    TITLE "0:"
    INDEX 01 00:32:35
  TRACK 17 AUDIO
    TITLE "2:cjc151_3258"
    INDEX 01 00:34:18
  TRACK 18 AUDIO
    TITLE "0:"
    INDEX 01 00:35:27
  TRACK 19 AUDIO
    TITLE "3:cjc151_3259"
    INDEX 01 00:37:05
  TRACK 20 AUDIO
    TITLE "0:"
    INDEX 01 00:40:24
  TRACK 21 AUDIO
    TITLE "2:cjc151_3260"
    INDEX 01 00:42:02
  TRACK 22 AUDIO
    TITLE "0:"
    INDEX 01 00:43:23
  TRACK 23 AUDIO
    TITLE "3:cjc151_3261"
    INDEX 01 00:45:00
  TRACK 24 AUDIO
    TITLE "0:"
    INDEX 01 00:48:71
  TRACK 25 AUDIO
    TITLE "2:cjc151_3262"
    INDEX 01 00:50:50
  TRACK 26 AUDIO
    TITLE "0:"
    INDEX 01 00:51:60
  TRACK 27 AUDIO
    TITLE "3:cjc151_3263"
    INDEX 01 00:53:39
  TRACK 28 AUDIO
    TITLE "0:"
    INDEX 01 00:57:19
  TRACK 29 AUDIO
    TITLE "2:cjc151_3264"
    INDEX 01 00:59:12
  TRACK 30 AUDIO
    TITLE "0:"
    INDEX 01 01:00:45
  TRACK 31 AUDIO
    TITLE "3:cjc151_3265"
    INDEX 01 01:02:18
  TRACK 32 AUDIO
    TITLE "0:"
    INDEX 01 01:06:34
  TRACK 33 AUDIO
    TITLE "2:cjc151_3266"
    INDEX 01 01:08:13
  TRACK 34 AUDIO
    TITLE "0:"
    INDEX 01 01:09:32
  TRACK 35 AUDIO
    TITLE "3:cjc151_3267"
    INDEX 01 01:11:07
  TRACK 36 AUDIO
    TITLE "0:"
    INDEX 01 01:14:16
  TRACK 37 AUDIO
    TITLE "2:cjc151_3268"
    INDEX 01 01:15:68
  TRACK 38 AUDIO
    TITLE "0:"
    INDEX 01 01:17:06
  TRACK 39 AUDIO
    TITLE "3:cjc151_3269"
    INDEX 01 01:18:64
  TRACK 40 AUDIO
    TITLE "0:"
    INDEX 01 01:22:35
  TRACK 41 AUDIO
    TITLE "2:cjc151_3270"
    INDEX 01 01:24:18
  TRACK 42 AUDIO
    TITLE "0:"
    INDEX 01 01:25:09
  TRACK 43 AUDIO
    TITLE "3:cjc151_3271"
    INDEX 01 01:26:68
  TRACK 44 AUDIO
    TITLE "0:"
    INDEX 01 01:30:48
  TRACK 45 AUDIO
    TITLE "2:cjc151_3272"
    INDEX 01 01:32:27
  TRACK 46 AUDIO
    TITLE "0:"
    INDEX 01 01:33:25
  TRACK 47 AUDIO
    TITLE "3:cjc151_3273"
    INDEX 01 01:35:18
  TRACK 48 AUDIO
    TITLE "0:"
    INDEX 01 01:38:43
  TRACK 49 AUDIO
    TITLE "2:cjc151_3274"
    INDEX 01 01:40:46
  TRACK 50 AUDIO
    TITLE "0:"
    INDEX 01 01:41:46
  TRACK 51 AUDIO
    TITLE "3:cjc151_3275"
    INDEX 01 01:43:25
  TRACK 52 AUDIO
    TITLE "0:"
    INDEX 01 01:47:15
  TRACK 53 AUDIO
    TITLE "2:cjc151_3276"
    INDEX 01 01:48:69
  TRACK 54 AUDIO
    TITLE "0:"
    INDEX 01 01:50:00
  TRACK 55 AUDIO
    TITLE "3:cjc151_3277"
    INDEX 01 01:51:52
  TRACK 56 AUDIO
    TITLE "0:"
    INDEX 01 01:54:44
  TRACK 57 AUDIO
    TITLE "2:cjc151_3278"
    INDEX 01 01:56:30
  TRACK 58 AUDIO
    TITLE "0:"
    INDEX 01 01:57:45
  TRACK 59 AUDIO
    TITLE "3:cjc151_3279"
    INDEX 01 01:59:22
  TRACK 60 AUDIO
    TITLE "0:"
    INDEX 01 02:03:00
  TRACK 61 AUDIO
    TITLE "2:cjc151_3280"
    INDEX 01 02:04:55
  TRACK 62 AUDIO
    TITLE "0:"
    INDEX 01 02:06:10
  TRACK 63 AUDIO
    TITLE "3:cjc151_3281"
    INDEX 01 02:07:65
  TRACK 64 AUDIO
    TITLE "0:"
    INDEX 01 02:11:17
  TRACK 65 AUDIO
    TITLE "2:cjc151_3282"
    INDEX 01 02:12:70
  TRACK 66 AUDIO
    TITLE "0:"
    INDEX 01 02:13:69
  TRACK 67 AUDIO
    TITLE "3:cjc151_3283"
    INDEX 01 02:15:49
  TRACK 68 AUDIO
    TITLE "0:"
    INDEX 01 02:18:45
  TRACK 69 AUDIO
    TITLE "2:cjc151_3284"
    INDEX 01 02:20:24
  TRACK 70 AUDIO
    TITLE "0:"
    INDEX 01 02:21:24
  TRACK 71 AUDIO
    TITLE "3:cjc151_3285"
    INDEX 01 02:23:15
  TRACK 72 AUDIO
    TITLE "0:"
    INDEX 01 02:26:74
  TRACK 73 AUDIO
    TITLE "2:cjc151_3286"
    INDEX 01 02:28:53
  TRACK 74 AUDIO
    TITLE "0:"
    INDEX 01 02:29:43
  TRACK 75 AUDIO
    TITLE "3:cjc151_3287"
    INDEX 01 02:31:22
  TRACK 76 AUDIO
    TITLE "0:"
    INDEX 01 02:34:54
  TRACK 77 AUDIO
    TITLE "2:cjc151_3288"
    INDEX 01 02:36:33
  TRACK 78 AUDIO
    TITLE "0:"
    INDEX 01 02:37:33
  TRACK 79 AUDIO
    TITLE "3:cjc151_3289"
    INDEX 01 02:39:08
  TRACK 80 AUDIO
    TITLE "0:"
    INDEX 01 02:42:65
  TRACK 81 AUDIO
    TITLE "2:cjc151_3290"
    INDEX 01 02:44:44
  TRACK 82 AUDIO
    TITLE "0:"
    INDEX 01 02:45:48
  TRACK 83 AUDIO
    TITLE "3:cjc151_3291"
    INDEX 01 02:47:31
  TRACK 84 AUDIO
    TITLE "0:"
    INDEX 01 02:50:65
  TRACK 85 AUDIO
    TITLE "2:cjc151_3292"
    INDEX 01 02:52:46
  TRACK 86 AUDIO
    TITLE "0:"
    INDEX 01 02:53:37
  TRACK 87 AUDIO
    TITLE "3:cjc151_3293"
    INDEX 01 02:55:23
  TRACK 88 AUDIO
    TITLE "0:"
    INDEX 01 02:58:58
